<mxfile host="app.diagrams.net" agent="Mozilla/5.0 (Windows NT 10.0; Win64; x64) AppleWebKit/537.36 (KHTML, like Gecko) Chrome/135.0.0.0 Safari/537.36" version="26.2.13">
  <diagram name="Page-1" id="kIci5dX_lS2vd9pGvo0l">
    <mxGraphModel dx="874" dy="439" grid="1" gridSize="10" guides="1" tooltips="1" connect="1" arrows="1" fold="1" page="1" pageScale="1" pageWidth="827" pageHeight="1169" math="0" shadow="0">
      <root>
        <mxCell id="0" />
        <mxCell id="1" parent="0" />
        <mxCell id="K9naRpynGzBTIceL8GBB-1" value="Client&amp;nbsp;" style="rounded=1;whiteSpace=wrap;html=1;" vertex="1" parent="1">
          <mxGeometry x="20" y="180" width="100" height="90" as="geometry" />
        </mxCell>
        <mxCell id="K9naRpynGzBTIceL8GBB-2" value="API Gateway" style="rounded=1;whiteSpace=wrap;html=1;" vertex="1" parent="1">
          <mxGeometry x="170" y="180" width="100" height="90" as="geometry" />
        </mxCell>
        <mxCell id="K9naRpynGzBTIceL8GBB-3" value="Microservices" style="swimlane;whiteSpace=wrap;html=1;" vertex="1" parent="1">
          <mxGeometry x="300" y="30" width="360" height="420" as="geometry" />
        </mxCell>
        <mxCell id="K9naRpynGzBTIceL8GBB-4" value="Service" style="ellipse;whiteSpace=wrap;html=1;aspect=fixed;fillColor=light-dark(#e51400, #ff1500);fontColor=#ffffff;strokeColor=#B20000;" vertex="1" parent="K9naRpynGzBTIceL8GBB-3">
          <mxGeometry x="40" y="60" width="100" height="100" as="geometry" />
        </mxCell>
        <mxCell id="K9naRpynGzBTIceL8GBB-5" value="&lt;font style=&quot;color: light-dark(rgb(0, 0, 0), rgb(0, 0, 0));&quot;&gt;Service&lt;/font&gt;" style="ellipse;whiteSpace=wrap;html=1;aspect=fixed;fillColor=light-dark(#E3C800,#FFFF00);fontColor=#000000;strokeColor=#B09500;" vertex="1" parent="K9naRpynGzBTIceL8GBB-3">
          <mxGeometry x="40" y="190" width="100" height="100" as="geometry" />
        </mxCell>
        <mxCell id="K9naRpynGzBTIceL8GBB-6" value="Service" style="ellipse;whiteSpace=wrap;html=1;aspect=fixed;fillColor=#008a00;fontColor=#ffffff;strokeColor=#005700;" vertex="1" parent="K9naRpynGzBTIceL8GBB-3">
          <mxGeometry x="40" y="310" width="100" height="100" as="geometry" />
        </mxCell>
        <mxCell id="K9naRpynGzBTIceL8GBB-7" value="Service" style="ellipse;whiteSpace=wrap;html=1;aspect=fixed;fillColor=#0050ef;fontColor=#ffffff;strokeColor=#001DBC;" vertex="1" parent="K9naRpynGzBTIceL8GBB-3">
          <mxGeometry x="210" y="60" width="100" height="100" as="geometry" />
        </mxCell>
        <mxCell id="K9naRpynGzBTIceL8GBB-15" value="" style="endArrow=classic;html=1;rounded=0;entryX=0;entryY=0.5;entryDx=0;entryDy=0;" edge="1" parent="K9naRpynGzBTIceL8GBB-3" target="K9naRpynGzBTIceL8GBB-7">
          <mxGeometry width="50" height="50" relative="1" as="geometry">
            <mxPoint x="140" y="110" as="sourcePoint" />
            <mxPoint x="190" y="60" as="targetPoint" />
          </mxGeometry>
        </mxCell>
        <mxCell id="K9naRpynGzBTIceL8GBB-8" value="DevOps" style="shape=umlActor;verticalLabelPosition=bottom;verticalAlign=top;html=1;outlineConnect=0;" vertex="1" parent="1">
          <mxGeometry x="730" y="100" width="30" height="60" as="geometry" />
        </mxCell>
        <mxCell id="K9naRpynGzBTIceL8GBB-9" value="" style="shape=umlActor;verticalLabelPosition=bottom;verticalAlign=top;html=1;outlineConnect=0;" vertex="1" parent="1">
          <mxGeometry x="730" y="350" width="30" height="60" as="geometry" />
        </mxCell>
        <mxCell id="K9naRpynGzBTIceL8GBB-16" value="" style="endArrow=classic;html=1;rounded=0;entryX=0.06;entryY=0.65;entryDx=0;entryDy=0;entryPerimeter=0;" edge="1" parent="1" target="K9naRpynGzBTIceL8GBB-4">
          <mxGeometry width="50" height="50" relative="1" as="geometry">
            <mxPoint x="270" y="230" as="sourcePoint" />
            <mxPoint x="320" y="180" as="targetPoint" />
          </mxGeometry>
        </mxCell>
        <mxCell id="K9naRpynGzBTIceL8GBB-17" value="" style="endArrow=classic;html=1;rounded=0;entryX=0;entryY=0.44;entryDx=0;entryDy=0;entryPerimeter=0;" edge="1" parent="1" target="K9naRpynGzBTIceL8GBB-5">
          <mxGeometry width="50" height="50" relative="1" as="geometry">
            <mxPoint x="270" y="230" as="sourcePoint" />
            <mxPoint x="320" y="180" as="targetPoint" />
          </mxGeometry>
        </mxCell>
        <mxCell id="K9naRpynGzBTIceL8GBB-18" value="" style="endArrow=classic;html=1;rounded=0;entryX=0;entryY=0.5;entryDx=0;entryDy=0;" edge="1" parent="1" target="K9naRpynGzBTIceL8GBB-6">
          <mxGeometry width="50" height="50" relative="1" as="geometry">
            <mxPoint x="270" y="230" as="sourcePoint" />
            <mxPoint x="320" y="180" as="targetPoint" />
          </mxGeometry>
        </mxCell>
        <mxCell id="K9naRpynGzBTIceL8GBB-19" value="" style="html=1;verticalAlign=bottom;endArrow=open;dashed=1;endSize=8;curved=0;rounded=0;entryX=1;entryY=0.5;entryDx=0;entryDy=0;" edge="1" parent="1" target="K9naRpynGzBTIceL8GBB-7">
          <mxGeometry relative="1" as="geometry">
            <mxPoint x="730" y="140" as="sourcePoint" />
            <mxPoint x="660" y="170" as="targetPoint" />
            <Array as="points">
              <mxPoint x="680" y="140" />
            </Array>
          </mxGeometry>
        </mxCell>
        <mxCell id="K9naRpynGzBTIceL8GBB-21" value="" style="html=1;verticalAlign=bottom;endArrow=open;dashed=1;endSize=8;curved=0;rounded=0;entryX=1.01;entryY=0.39;entryDx=0;entryDy=0;entryPerimeter=0;" edge="1" parent="1" target="K9naRpynGzBTIceL8GBB-6">
          <mxGeometry relative="1" as="geometry">
            <mxPoint x="740" y="379.5" as="sourcePoint" />
            <mxPoint x="520" y="380" as="targetPoint" />
            <Array as="points">
              <mxPoint x="690" y="379.5" />
            </Array>
          </mxGeometry>
        </mxCell>
        <mxCell id="K9naRpynGzBTIceL8GBB-22" value="Management/Orchestration" style="rounded=1;whiteSpace=wrap;html=1;fillColor=#1ba1e2;fontColor=#ffffff;strokeColor=#006EAF;" vertex="1" parent="1">
          <mxGeometry x="300" y="480" width="360" height="60" as="geometry" />
        </mxCell>
      </root>
    </mxGraphModel>
  </diagram>
</mxfile>
